<svg xmlns="http://www.w3.org/2000/svg" version="1.1" xmlns:xlink="http://www.w3.org/1999/xlink" xmlns:svgjs="http://svgjs.com/svgjs" width="1440" height="860" preserveAspectRatio="none" viewBox="0 0 1440 860"><g mask="url(&quot;#SvgjsMask1030&quot;)" fill="none"><rect width="1440" height="860" x="0" y="0" fill="#0e2a47"></rect><path d="M978 601L977 873" stroke-width="10" stroke="url(#SvgjsLinearGradient1031)" stroke-linecap="round" class="Down"></path><path d="M1110 597L1109 1000" stroke-width="6" stroke="url(#SvgjsLinearGradient1031)" stroke-linecap="round" class="Down"></path><path d="M1362 51L1361 -303" stroke-width="6" stroke="url(#SvgjsLinearGradient1031)" stroke-linecap="round" class="Down"></path><path d="M725 701L724 182" stroke-width="8" stroke="url(#SvgjsLinearGradient1031)" stroke-linecap="round" class="Down"></path><path d="M974 254L973 608" stroke-width="10" stroke="url(#SvgjsLinearGradient1032)" stroke-linecap="round" class="Up"></path><path d="M1322 609L1321 997" stroke-width="10" stroke="url(#SvgjsLinearGradient1032)" stroke-linecap="round" class="Up"></path><path d="M287 33L286 -302" stroke-width="6" stroke="url(#SvgjsLinearGradient1031)" stroke-linecap="round" class="Down"></path><path d="M218 452L217 768" stroke-width="10" stroke="url(#SvgjsLinearGradient1032)" stroke-linecap="round" class="Up"></path><path d="M34 130L33 -427" stroke-width="6" stroke="url(#SvgjsLinearGradient1032)" stroke-linecap="round" class="Up"></path><path d="M1385 252L1384 887" stroke-width="10" stroke="url(#SvgjsLinearGradient1031)" stroke-linecap="round" class="Down"></path><path d="M432 558L431 253" stroke-width="6" stroke="url(#SvgjsLinearGradient1031)" stroke-linecap="round" class="Down"></path><path d="M382 270L381 -298" stroke-width="8" stroke="url(#SvgjsLinearGradient1032)" stroke-linecap="round" class="Up"></path><path d="M730 57L729 -269" stroke-width="10" stroke="url(#SvgjsLinearGradient1031)" stroke-linecap="round" class="Down"></path><path d="M199 482L198 1032" stroke-width="6" stroke="url(#SvgjsLinearGradient1031)" stroke-linecap="round" class="Down"></path><path d="M1223 1L1222 -303" stroke-width="10" stroke="url(#SvgjsLinearGradient1032)" stroke-linecap="round" class="Up"></path><path d="M490 322L489 -43" stroke-width="10" stroke="url(#SvgjsLinearGradient1032)" stroke-linecap="round" class="Up"></path><path d="M1261 164L1260 560" stroke-width="6" stroke="url(#SvgjsLinearGradient1032)" stroke-linecap="round" class="Up"></path><path d="M764 804L763 431" stroke-width="10" stroke="url(#SvgjsLinearGradient1031)" stroke-linecap="round" class="Down"></path><path d="M1249 15L1248 -499" stroke-width="8" stroke="url(#SvgjsLinearGradient1032)" stroke-linecap="round" class="Up"></path><path d="M205 58L204 -398" stroke-width="10" stroke="url(#SvgjsLinearGradient1032)" stroke-linecap="round" class="Up"></path><path d="M1055 809L1054 1025" stroke-width="10" stroke="url(#SvgjsLinearGradient1031)" stroke-linecap="round" class="Down"></path><path d="M471 61L470 318" stroke-width="6" stroke="url(#SvgjsLinearGradient1032)" stroke-linecap="round" class="Up"></path><path d="M1102 374L1101 -211" stroke-width="6" stroke="url(#SvgjsLinearGradient1032)" stroke-linecap="round" class="Up"></path><path d="M1403 686L1402 138" stroke-width="6" stroke="url(#SvgjsLinearGradient1032)" stroke-linecap="round" class="Up"></path><path d="M944 540L943 92" stroke-width="6" stroke="url(#SvgjsLinearGradient1031)" stroke-linecap="round" class="Down"></path><path d="M557 373L556 871" stroke-width="6" stroke="url(#SvgjsLinearGradient1032)" stroke-linecap="round" class="Up"></path><path d="M327 327L326 949" stroke-width="8" stroke="url(#SvgjsLinearGradient1031)" stroke-linecap="round" class="Down"></path><path d="M1415 344L1414 868" stroke-width="6" stroke="url(#SvgjsLinearGradient1032)" stroke-linecap="round" class="Up"></path><path d="M707 406L706 1045" stroke-width="6" stroke="url(#SvgjsLinearGradient1031)" stroke-linecap="round" class="Down"></path><path d="M292 654L291 1151" stroke-width="10" stroke="url(#SvgjsLinearGradient1032)" stroke-linecap="round" class="Up"></path><path d="M1249 25L1248 460" stroke-width="8" stroke="url(#SvgjsLinearGradient1032)" stroke-linecap="round" class="Up"></path><path d="M1322 570L1321 45" stroke-width="10" stroke="url(#SvgjsLinearGradient1031)" stroke-linecap="round" class="Down"></path><path d="M249 377L248 907" stroke-width="6" stroke="url(#SvgjsLinearGradient1031)" stroke-linecap="round" class="Down"></path><path d="M1371 450L1370 676" stroke-width="8" stroke="url(#SvgjsLinearGradient1031)" stroke-linecap="round" class="Down"></path><path d="M479 586L478 293" stroke-width="8" stroke="url(#SvgjsLinearGradient1031)" stroke-linecap="round" class="Down"></path><path d="M1043 81L1042 -261" stroke-width="6" stroke="url(#SvgjsLinearGradient1031)" stroke-linecap="round" class="Down"></path></g><defs><mask id="SvgjsMask1030"><rect width="1440" height="860" fill="#ffffff"></rect></mask><linearGradient x1="0%" y1="0%" x2="0%" y2="100%" id="SvgjsLinearGradient1031"><stop stop-color="rgba(28, 83, 142, 0)" offset="0"></stop><stop stop-color="#1c538e" offset="1"></stop></linearGradient><linearGradient x1="0%" y1="100%" x2="0%" y2="0%" id="SvgjsLinearGradient1032"><stop stop-color="rgba(28, 83, 142, 0)" offset="0"></stop><stop stop-color="#1c538e" offset="1"></stop></linearGradient></defs></svg>